    <svg viewBox="0 0 32 33" fill="none" xmlns="http://www.w3.org/2000/svg">
      <g clipPath="url(#clip0_4095_25145)">
        <path
          d="M16 32.5C24.8366 32.5 32 25.3366 32 16.5C32 7.66344 24.8366 0.5 16 0.5C7.16344 0.5 0 7.66344 0 16.5C0 25.3366 7.16344 32.5 16 32.5Z"
          fill="black"
        />
        <path
          d="M22.7581 6.50001H13.6152V18.8332H25.9581V9.6903C25.9579 9.27057 25.875 8.85499 25.714 8.46736C25.553 8.07973 25.3172 7.72766 25.0199 7.43132C24.7227 7.13498 24.3699 6.90018 23.9818 6.74037C23.5936 6.58056 23.1778 6.49888 22.7581 6.50001Z"
          fill="white"
        />
        <path
          d="M10.7669 6.5H9.19143C8.34501 6.5 7.53326 6.83624 6.93475 7.43475C6.33624 8.03326 6 8.84501 6 9.69143L6 11.2669H10.7669V6.5Z"
          fill="white"
        />
        <path d="M6 14.1166H10.7669V18.8834H6V14.1166Z" fill="white" />
        <path
          d="M21.2324 26.4594H22.8079C23.2277 26.4594 23.6434 26.3766 24.0311 26.2157C24.4189 26.0548 24.7711 25.8189 25.0676 25.5217C25.364 25.2244 25.5989 24.8716 25.7588 24.4834C25.9187 24.0952 26.0004 23.6793 25.9993 23.2594V21.7332H21.2324V26.4594Z"
          fill="white"
        />
        <path d="M13.6172 21.7332H18.384V26.5H13.6172V21.7332Z" fill="white" />
        <path
          d="M6 21.7332V23.3086C6 23.7277 6.08255 24.1427 6.24293 24.5299C6.40332 24.9171 6.6384 25.2689 6.93475 25.5653C7.2311 25.8616 7.58292 26.0967 7.97012 26.2571C8.35732 26.4175 8.77232 26.5 9.19143 26.5H10.7669V21.7332H6Z"
          fill="white"
        />
      </g>
      <defs>
        <clipPath id="clip0_4095_25145">
          <rect
            width="32"
            height="32"
            fill="white"
            transform="translate(0 0.5)"
          />
        </clipPath>
      </defs>
    </svg>
