<svg width="36" height="36" viewBox="0 0 36 36" fill="none" xmlns="http://www.w3.org/2000/svg">
<rect width="36" height="36" rx="18" fill="#BBE7E8"/>
<path d="M20.3652 9.04344L17.5342 10.6153C16.5109 11.1835 16.4198 12.5963 17.362 13.2865L20.2525 15.4038C20.8413 15.8351 20.7846 16.7178 20.1453 17.073L17.537 18.5227C16.5131 19.0918 16.4235 20.5061 17.3678 21.1952L20.1198 23.2035C20.4053 23.4119 20.5736 23.7405 20.5736 24.0897V24.1724C20.5736 24.4266 20.8533 24.5861 21.0784 24.4602L23.9242 22.8683C24.9481 22.2956 25.032 20.8782 24.0826 20.193L21.1942 18.1082C20.6012 17.6802 20.6531 16.7949 21.2923 16.4366L23.9295 14.9581C24.9517 14.385 25.0353 12.9694 24.0874 12.2842L21.327 10.2888C21.039 10.0807 20.869 9.75059 20.869 9.39961V9.3318C20.869 9.07804 20.5902 8.91848 20.3652 9.04344Z" fill="#075A5A"/>
<path d="M14.1574 11.5392L11.3264 13.1111C10.3031 13.6793 10.2121 15.0921 11.1543 15.7823L14.0448 17.8996C14.6335 18.3309 14.5768 19.2136 13.9376 19.5688L11.3292 21.0185C10.3053 21.5876 10.2158 23.0019 11.1601 23.691L13.912 25.6993C14.1976 25.9077 14.3659 26.2363 14.3659 26.5855V26.6682C14.3659 26.9224 14.6456 27.0819 14.8706 26.956L17.7165 25.3642C18.7403 24.7915 18.8242 23.374 17.8749 22.6888L14.9864 20.604C14.3934 20.176 14.4454 19.2907 15.0846 18.9324L17.7217 17.4539C18.7439 16.8808 18.8276 15.4652 17.8797 14.78L15.1192 12.7846C14.8313 12.5765 14.6613 12.2464 14.6613 11.8954V11.8276C14.6613 11.5738 14.3825 11.4143 14.1574 11.5392Z" fill="#075A5A"/>
</svg>
