<svg width="63" height="100" viewBox="0 0 63 100" fill="none" xmlns="http://www.w3.org/2000/svg">
<path d="M31.2605 0L0 22.8872V71.5308L16.6706 83.7353L19.9378 81.3413V91.7053L31.2605 100L42.5892 91.7053V81.3413L45.8564 83.7353L62.527 71.5308V22.8872L31.2605 0Z" fill="#2C2C2C"/>
<path d="M31.2604 58.5632L19.9377 66.8339L31.2604 75.1286L42.5891 66.8339L31.2604 58.5632ZM16.6584 34.0098L31.2604 23.3211L45.8624 34.0098L57.1911 25.697L31.2604 6.72559L5.3479 25.697L16.6584 34.0098ZM57.1911 50.5692L31.2604 31.5978L5.3479 50.5692L16.6705 58.8639L31.2725 48.1812L45.8745 58.8639L57.1911 50.5692Z" fill="url(#paint0_linear_86_3334)"/>
<defs>
<linearGradient id="paint0_linear_86_3334" x1="31.2604" y1="75.5075" x2="31.2604" y2="6.72559" gradientUnits="userSpaceOnUse">
<stop stop-color="#4B94CD"/>
<stop offset="0.08" stop-color="#469CCB"/>
<stop offset="0.48" stop-color="#2EC4C4"/>
<stop offset="0.8" stop-color="#1FDCC0"/>
<stop offset="1" stop-color="#1AE5BE"/>
</linearGradient>
</defs>
</svg>
