<svg width="20" height="20" viewBox="0 0 20 20" fill="none" xmlns="http://www.w3.org/2000/svg">
<g clip-path="url(#clip0_3250_3068)">
<path d="M10 19C14.9706 19 19 14.9706 19 10C19 5.02944 14.9706 1 10 1C5.02944 1 1 5.02944 1 10C1 14.9706 5.02944 19 10 19Z" fill="white"/>
<path d="M13.4974 12.3436C13.393 12.3166 13.2904 12.2626 13.2058 12.178L13.204 12.1762L7.87241 6.84461L7.82021 6.79241C7.75721 6.72941 7.71041 6.65741 7.68161 6.58361C7.56281 6.29201 7.67081 5.93561 7.97501 5.78261C9.00641 5.25701 10.9702 4.75661 12.9466 6.51701C12.9502 6.52061 12.9772 6.54041 13.0024 6.54041C13.033 6.54041 13.0636 6.52241 13.0636 6.52241C13.0636 6.52241 13.06 6.52421 13.0672 6.52061C13.1176 6.49541 13.3264 6.37841 13.6522 6.05261C13.807 5.89961 13.8826 5.71781 13.8826 5.51261C13.8808 5.21561 13.717 4.88621 13.4326 4.60901C13.285 4.46681 13.2832 4.23101 13.4272 4.08521C13.5694 3.93761 13.8052 3.93581 13.951 4.07981C14.3758 4.49561 14.6224 5.01401 14.626 5.50901C14.6278 5.91401 14.473 6.28301 14.1796 6.57821C13.9006 6.85721 13.6792 7.01921 13.5316 7.11101C14.2876 7.98041 14.6116 8.84621 14.6908 9.62921V9.62201C14.6926 9.64541 14.6944 9.66881 14.6962 9.69041C14.698 9.71741 14.6998 9.74441 14.7016 9.76961C14.7034 9.79841 14.7034 9.82541 14.7052 9.85601C14.707 9.88301 14.707 9.91001 14.707 9.93521C14.707 9.96221 14.707 9.98921 14.707 10.0162C14.707 10.0432 14.707 10.0702 14.707 10.0954C14.707 10.1224 14.7052 10.1476 14.7052 10.1746C14.7052 10.2016 14.7034 10.2268 14.7016 10.2538C14.6998 10.279 14.698 10.3042 14.6962 10.3312C14.6944 10.3582 14.6926 10.3834 14.6908 10.4104C14.689 10.4356 14.6872 10.459 14.6818 10.4842C14.68 10.5112 14.6764 10.5364 14.671 10.5634C14.6692 10.5868 14.6656 10.612 14.6602 10.6354C14.6566 10.6624 14.6512 10.6876 14.6476 10.7146C14.644 10.738 14.6386 10.7578 14.635 10.7812C14.6314 10.8082 14.6242 10.8334 14.6206 10.8586C14.6188 10.8694 14.617 10.882 14.6152 10.8928C14.5216 11.3338 14.3704 11.7172 14.2174 12.0214C14.0788 12.3004 13.7728 12.4156 13.4974 12.3436ZM9.79121 9.20081L7.67981 7.08941C7.46741 7.34861 7.08401 7.80221 6.49901 8.42501C6.40001 8.52761 6.29921 8.63381 6.19121 8.74541C6.13181 8.80841 6.07601 8.87141 6.02381 8.93441C6.01121 8.94881 6.00041 8.96321 5.98781 8.97581C5.97341 8.99381 5.95721 9.01541 5.94101 9.03521C5.80241 9.21521 5.68901 9.40241 5.59721 9.59501C5.32541 10.1692 5.24981 10.7866 5.28041 11.3878C5.30741 11.9008 5.41541 12.403 5.54861 12.8512C5.65481 13.2166 5.73221 13.4704 5.74481 13.6414V13.7206C5.74301 13.735 5.74301 13.7476 5.74121 13.7602C5.73041 13.8106 5.72321 13.8538 5.72321 13.897C5.71241 14.023 5.74661 14.104 5.84741 14.194C5.93741 14.2948 6.02021 14.329 6.14441 14.32C6.18581 14.3182 6.23081 14.311 6.28121 14.302C6.29381 14.3002 6.30641 14.2984 6.32081 14.2984H6.40001C6.57281 14.311 6.82481 14.3902 7.19021 14.4946C7.64021 14.6296 8.14241 14.7358 8.65361 14.7628C9.25481 14.7934 9.87401 14.7196 10.4464 14.446C10.639 14.3542 10.8262 14.2408 11.0062 14.1022C11.0242 14.0878 11.0458 14.0716 11.0656 14.0554C11.08 14.0428 11.0944 14.032 11.1088 14.0194C11.1718 13.9672 11.2366 13.9132 11.2978 13.852C11.4094 13.7458 11.5138 13.6432 11.6164 13.546C12.2392 12.9592 12.6946 12.5758 12.9538 12.3634L9.79121 9.20081Z" fill="url(#paint0_linear_3250_3068)"/>
</g>
<defs>
<linearGradient id="paint0_linear_3250_3068" x1="7.23849" y1="6.47474" x2="13.5253" y2="12.7615" gradientUnits="userSpaceOnUse">
<stop stop-color="#00ADAB" stop-opacity="0.5"/>
<stop offset="1" stop-color="#00ADAB"/>
</linearGradient>
<clipPath id="clip0_3250_3068">
<rect width="18" height="18" fill="white" transform="translate(1 1)"/>
</clipPath>
</defs>
</svg>
