<?xml version="1.0" standalone="no"?>
<!DOCTYPE svg PUBLIC "-//W3C//DTD SVG 20010904//EN"
 "http://www.w3.org/TR/2001/REC-SVG-20010904/DTD/svg10.dtd">
<svg version="1.0" xmlns="http://www.w3.org/2000/svg"
 width="400.000000pt" height="400.000000pt" viewBox="0 0 400.000000 400.000000"
 preserveAspectRatio="xMidYMid meet">

<g transform="translate(0.000000,400.000000) scale(0.100000,-0.100000)"
fill="#216afa" stroke="none">
<path d="M0 2000 l0 -2000 2000 0 2000 0 0 2000 0 2000 -2000 0 -2000 0 0
-2000z m2150 1029 l142 -211 -143 -215 c-79 -118 -146 -216 -150 -218 -3 -3
-70 92 -148 209 -135 202 -142 215 -129 238 36 66 273 416 279 412 4 -2 71
-99 149 -215z m950 -1434 c298 -451 545 -825 547 -832 4 -10 -55 -13 -286 -13
l-291 0 -256 388 c-141 213 -324 489 -406 614 l-149 227 146 222 c80 122 147
220 149 218 2 -2 248 -373 546 -824z m-1510 604 c78 -116 140 -216 138 -223
-2 -7 -183 -286 -403 -619 l-400 -606 -289 -1 c-226 0 -287 3 -283 13 2 6 175
269 382 582 208 314 452 681 541 818 90 136 166 247 168 247 3 0 69 -95 146
-211z m677 -1021 c146 -222 268 -408 270 -415 4 -10 -104 -13 -536 -13 -407 0
-541 3 -541 12 0 11 530 818 538 818 1 0 122 -181 269 -402z"/>
</g>
</svg>
