<?xml version="1.0" standalone="no"?>
<!DOCTYPE svg PUBLIC "-//W3C//DTD SVG 20010904//EN"
 "http://www.w3.org/TR/2001/REC-SVG-20010904/DTD/svg10.dtd">
<svg version="1.0" xmlns="http://www.w3.org/2000/svg"
 width="64.000000pt" height="64.000000pt" viewBox="0 0 64.000000 64.000000"
 preserveAspectRatio="xMidYMid meet"  >

<g transform="translate(0.000000,64.000000) scale(0.100000,-0.100000)"
fill="#000000" stroke="none">
<path d="M235 616 c-88 -28 -154 -83 -194 -163 -28 -56 -43 -161 -29 -210 38
-141 159 -237 298 -237 98 -1 164 26 231 93 85 86 106 170 74 295 -45 171
-219 273 -380 222z m35 -49 c0 -8 -17 -19 -38 -25 -43 -13 -104 -67 -128 -114
-59 -114 3 -278 122 -324 24 -9 44 -21 44 -25 0 -31 -118 28 -156 78 -39 52
-54 97 -54 165 1 108 51 190 145 234 58 28 65 29 65 11z m145 -1 c57 -24 100
-63 131 -118 25 -46 29 -64 29 -128 0 -83 -15 -122 -69 -178 -33 -35 -94 -72
-121 -72 -27 0 -16 16 26 34 50 22 106 78 127 125 21 51 19 137 -5 191 -23 52
-76 103 -127 121 -20 7 -36 19 -36 26 0 16 3 16 45 -1z m-85 -75 c0 -12 9 -21
24 -25 32 -8 56 -32 56 -57 0 -24 -18 -25 -27 -1 -10 25 -23 32 -69 32 -47 0
-64 -14 -64 -52 0 -32 17 -43 82 -53 59 -9 88 -35 88 -80 0 -42 -29 -75 -65
-75 -20 0 -25 -5 -25 -25 0 -16 -6 -25 -15 -25 -9 0 -15 9 -15 25 0 18 -5 25
-20 25 -11 0 -29 9 -40 20 -24 24 -27 60 -5 60 8 0 15 -9 15 -20 0 -24 28 -40
70 -40 44 0 70 17 70 45 0 41 -11 54 -48 61 -98 16 -122 34 -122 93 0 30 38
71 66 71 8 0 14 9 14 20 0 11 7 20 15 20 8 0 15 -9 15 -19z"/>
</g>
</svg>
