<svg xmlns="http://www.w3.org/2000/svg" width="512" height="512" viewBox="0 0 512 512">
<g>
<path d="M 151.55,239.45 L 152.08,240.17 L 152.41,240.69 L 153.13,241.83 L 153.52,242.52 L 154.33,243.96 L 154.75,244.75 L 156.00,247.12 L 157.04,249.08 L 157.65,250.24 L 158.94,252.67 L 159.67,254.05 L 161.20,256.92 L 162.04,258.51 L 163.77,261.78 L 164.71,263.56 L 166.65,267.19 L 167.68,269.14 L 169.78,273.11 L 170.90,275.20 L 173.16,279.47 L 174.35,281.70 L 179.22,290.87 L 181.82,295.76 L 187.12,305.73 L 189.88,310.92 L 195.45,321.39 L 198.28,326.73 L 203.98,337.43 L 206.82,342.77 L 212.49,353.42 L 215.26,358.63 L 220.75,368.95 L 223.37,373.88 L 228.53,383.57 L 230.94,388.09 L 233.31,392.54 L 234.45,394.67 L 236.68,398.86 L 237.73,400.84 L 239.80,404.72 L 240.77,406.53 L 242.65,410.07 L 243.52,411.70 L 245.21,414.87 L 245.97,416.30 L 247.44,419.05 L 248.09,420.26 L 249.32,422.57 L 249.84,423.54 L 250.82,425.36 L 251.20,426.08 L 251.90,427.39 L 252.15,427.84 L 252.55,428.59 L 252.64,428.75 L 256.10,435.00 L 249.80,434.90 L 244.09,434.57 L 240.04,434.13 L 237.93,433.80 L 233.65,433.07 L 231.46,432.61 L 227.04,431.62 L 224.82,431.04 L 215.91,428.49 L 211.63,426.93 L 207.39,425.33 L 205.36,424.46 L 201.37,422.70 L 199.50,421.77 L 188.30,415.50 L 181.19,410.82 L 177.83,408.24 L 171.24,402.95 L 168.16,400.09 L 162.14,394.24 L 159.37,391.13 L 153.99,384.79 L 151.55,381.45 L 146.85,374.68 L 144.77,371.14 L 140.80,363.99 L 139.11,360.29 L 135.93,352.82 L 134.65,348.99 L 133.06,344.00 L 132.15,340.86 L 131.76,339.35 L 130.39,333.45 L 129.93,330.48 L 129.16,324.46 L 128.96,321.12 L 128.79,317.70 L 128.74,315.86 L 128.67,312.07 L 128.66,310.00 L 128.67,305.42 L 128.71,302.75 L 128.74,301.56 L 128.82,299.27 L 128.88,298.23 L 129.01,296.21 L 129.10,295.25 L 129.55,291.54 L 129.90,289.62 L 130.28,287.66 L 130.50,286.61 L 130.98,284.43 L 131.27,283.22 L 132.58,278.15 L 133.64,274.50 L 134.21,272.69 L 135.38,269.11 L 135.95,267.49 L 137.09,264.42 L 137.59,263.22 L 139.22,259.60 L 140.46,256.99 L 141.13,255.65 L 143.93,250.21 L 145.30,247.74 L 146.65,245.35 L 147.27,244.30 L 148.47,242.31 L 148.98,241.52 L 149.94,240.11 L 150.29,239.67 L 150.90,239.00 L 151.05,239.00 Z" fill="rgba(0,163,255,1)"/>
<path d="M 282.26,510.54 L 274.80,511.20 L 271.07,511.49 L 263.63,511.84 L 259.91,511.97 L 252.51,511.99 L 248.81,511.97 L 241.46,511.67 L 237.79,511.48 L 235.77,511.31 L 236.38,511.34 L 241.17,511.51 L 243.87,511.55 L 249.45,511.61 L 252.41,511.59 L 258.42,511.53 L 261.46,511.45 L 267.55,511.29 L 270.49,511.17 L 276.29,510.90 L 278.95,510.74 L 282.79,510.47 M 125.63,476.43 L 136.20,482.44 L 141.66,485.17 L 152.67,490.42 L 158.33,492.76 L 169.76,497.24 L 175.61,499.18 L 187.41,502.86 L 193.43,504.38 L 205.57,507.22 L 211.75,508.31 L 219.99,509.62 L 211.93,508.39 L 205.80,507.33 L 193.74,504.56 L 187.75,503.06 L 176.01,499.43 L 170.18,497.52 L 158.79,493.06 L 153.14,490.73 L 142.13,485.48 L 136.68,482.76 L 126.10,476.74 L 120.87,473.64 L 120.43,473.35 M 382.33,247.53 L 387.68,247.76 L 390.31,247.96 L 395.53,248.40 L 398.03,248.71 L 402.93,249.38 L 405.19,249.79 L 409.57,250.68 L 411.50,251.19 L 425.23,255.69 L 434.08,259.40 L 438.33,261.58 L 446.71,266.18 L 450.69,268.78 L 458.50,274.18 L 462.17,277.16 L 469.32,283.30 L 472.63,286.63 L 479.05,293.44 L 481.95,297.08 L 487.55,304.49 L 490.00,308.40 L 492.40,312.34 L 493.51,314.35 L 495.67,318.41 L 496.65,320.49 L 498.11,323.45 L 499.02,325.23 L 499.42,325.96 L 500.16,327.29 L 500.44,327.73 L 500.92,328.45 L 501.03,328.52 L 501.27,328.37 L 501.49,328.02 L 501.61,327.72 L 501.88,327.06 L 502.03,326.62 L 502.34,325.67 L 502.52,325.10 L 503.24,322.59 L 503.65,321.03 L 503.77,320.55 L 503.44,321.89 L 503.14,323.13 L 502.67,325.17 L 502.45,326.12 L 502.15,327.68 L 502.02,328.41 L 501.86,329.62 L 501.75,330.76 L 501.93,332.48 L 502.71,335.18 L 503.61,337.74 L 505.16,343.16 L 505.90,345.91 L 507.11,351.64 L 507.67,354.53 L 508.53,360.45 L 508.92,363.42 L 509.42,369.43 L 509.63,372.44 L 509.77,378.44 L 509.80,381.43 L 509.57,387.31 L 509.41,390.22 L 508.80,395.88 L 507.46,404.00 L 506.81,407.10 L 505.19,413.21 L 504.32,416.24 L 502.28,422.20 L 501.20,425.16 L 498.74,430.95 L 497.46,433.82 L 494.61,439.40 L 493.13,442.17 L 489.90,447.52 L 488.23,450.17 L 484.66,455.22 L 477.57,444.50 L 476.68,443.17 L 475.97,442.08 L 475.55,441.45 L 474.67,440.12 L 474.18,439.38 L 473.15,437.83 L 472.59,436.97 L 470.20,433.36 L 468.83,431.29 L 465.97,426.98 L 464.41,424.61 L 461.19,419.75 L 459.47,417.16 L 455.98,411.88 L 454.17,409.13 L 446.75,397.92 L 443.00,392.25 L 437.51,383.96 L 434.02,378.70 L 432.38,376.23 L 429.18,371.42 L 427.72,369.23 L 424.89,364.99 L 423.65,363.12 L 421.27,359.56 L 420.27,358.07 L 419.31,356.63 L 418.88,356.00 L 418.06,354.78 L 417.70,354.25 L 417.03,353.27 L 416.76,352.86 L 416.25,352.12 L 416.06,351.84 L 415.72,351.36 L 415.62,351.21 L 415.46,351.00 L 415.45,351.00 L 415.08,351.41 L 414.59,352.07 L 414.25,352.54 L 413.53,353.58 L 413.10,354.21 L 412.21,355.53 L 411.74,356.25 L 409.92,359.01 L 408.39,361.34 L 407.53,362.64 L 403.92,368.13 L 402.26,370.64 L 396.24,379.78 L 422.87,420.36 L 428.25,428.52 L 431.70,433.71 L 433.33,436.15 L 436.52,440.91 L 437.99,443.08 L 440.84,447.29 L 442.12,449.15 L 444.56,452.69 L 445.60,454.17 L 447.55,456.94 L 448.32,458.00 L 449.05,459.00 L 449.35,459.41 L 449.93,460.17 L 450.16,460.45 L 450.57,460.96 L 450.71,461.11 L 450.95,461.35 L 451.00,461.37 L 451.30,461.42 L 451.58,461.45 L 452.24,461.50 L 452.68,461.52 L 453.64,461.56 L 454.21,461.58 L 455.44,461.61 L 456.13,461.63 L 459.13,461.67 L 460.87,461.67 L 464.47,461.67 L 466.37,461.65 L 479.72,461.51 L 478.82,462.61 L 472.50,469.49 L 471.02,470.98 L 468.20,473.72 L 466.81,475.05 L 464.10,477.49 L 461.40,479.88 L 456.08,484.00 L 453.38,485.98 L 447.64,489.58 L 446.16,490.47 L 443.02,492.21 L 438.00,494.82 L 435.22,496.22 L 429.91,498.66 L 427.28,499.82 L 422.20,501.82 L 419.67,502.76 L 414.70,504.34 L 412.22,505.08 L 407.24,506.26 L 404.75,506.81 L 399.66,507.63 L 397.09,507.99 L 391.78,508.47 L 389.09,508.66 L 383.43,508.82 L 374.45,508.72 L 372.46,508.65 L 368.82,508.48 L 367.04,508.39 L 363.77,508.15 L 360.57,507.89 L 354.90,507.11 L 352.11,506.67 L 346.72,505.44 L 338.13,502.95 L 331.75,500.89 L 325.63,502.41 L 325.81,502.36 L 331.12,500.82 L 320.92,495.81 L 316.87,493.80 L 314.41,492.54 L 313.38,492.01 L 311.49,491.00 L 310.84,490.64 L 310.24,490.30 L 310.03,490.17 L 309.68,489.95 L 309.60,489.89 L 308.84,489.31 L 308.07,488.76 L 307.59,488.43 L 305.46,486.98 L 304.31,486.23 L 301.58,484.35 L 299.60,482.88 L 298.56,482.07 L 294.29,478.65 L 292.18,476.83 L 288.03,473.15 L 286.25,471.43 L 284.53,469.75 L 283.79,468.97 L 282.40,467.48 L 281.85,466.83 L 277.81,462.00 L 289.78,462.00 L 294.66,461.95 L 297.73,461.88 L 299.08,461.82 L 301.61,461.70 L 302.56,461.63 L 303.46,461.56 L 303.80,461.52 L 304.43,461.44 L 304.62,461.39 L 305.57,461.04 L 306.25,460.60 L 306.64,460.26 L 307.47,459.47 L 307.96,458.91 L 309.00,457.68 L 309.63,456.86 L 310.96,455.08 L 311.76,453.96 L 313.45,451.54 L 314.46,450.06 L 316.59,446.92 L 317.84,445.04 L 319.12,443.10 L 319.81,442.05 L 321.23,439.90 L 322.00,438.73 L 325.16,433.93 L 327.42,430.50 L 328.59,428.72 L 333.41,421.42 L 335.83,417.75 L 340.63,410.48 L 342.83,407.16 L 344.98,403.92 L 345.97,402.43 L 347.88,399.55 L 348.72,398.28 L 360.93,379.89 L 341.70,351.02 L 338.81,355.26 L 338.35,355.93 L 337.90,356.62 L 337.59,357.07 L 336.94,358.05 L 336.55,358.64 L 335.72,359.89 L 335.24,360.61 L 334.23,362.12 L 333.67,362.97 L 332.51,364.72 L 331.87,365.68 L 329.18,369.74 L 327.65,372.06 L 324.45,376.89 L 322.69,379.54 L 319.08,385.00 L 317.15,387.92 L 313.22,393.86 L 311.16,396.97 L 307.00,403.27 L 304.86,406.50 L 298.61,415.96 L 294.62,421.99 L 292.74,424.82 L 289.08,430.34 L 287.40,432.87 L 284.14,437.77 L 282.70,439.94 L 279.94,444.08 L 278.78,445.82 L 277.66,447.50 L 277.15,448.25 L 276.19,449.68 L 275.77,450.31 L 274.98,451.48 L 274.65,451.97 L 274.04,452.87 L 273.81,453.21 L 273.39,453.82 L 273.26,454.01 L 273.04,454.31 L 273.01,454.34 L 272.53,454.43 L 272.09,454.22 L 271.82,453.99 L 271.24,453.44 L 270.91,453.05 L 270.21,452.20 L 269.83,451.67 L 268.18,449.29 L 267.25,447.78 L 265.33,444.55 L 264.31,442.71 L 262.25,438.89 L 261.22,436.85 L 259.17,432.71 L 258.20,430.60 L 256.30,426.39 L 255.46,424.35 L 253.86,420.34 L 253.23,418.50 L 252.53,416.30 L 252.04,414.56 L 251.74,413.36 L 251.43,412.10 L 251.26,411.36 L 250.89,409.79 L 250.67,408.86 L 250.22,406.91 L 249.96,405.77 L 249.42,403.36 L 249.10,401.97 L 248.50,398.54 L 248.16,395.77 L 248.01,394.20 L 247.75,390.96 L 247.64,389.23 L 247.46,385.69 L 247.40,383.88 L 247.26,376.54 L 247.33,373.11 L 247.43,369.75 L 247.52,368.21 L 247.73,365.26 L 247.88,364.00 L 248.49,359.55 L 249.05,356.20 L 249.37,354.46 L 250.03,351.00 L 250.38,349.36 L 251.08,346.20 L 251.42,344.88 L 253.08,338.80 L 254.20,335.26 L 254.86,333.50 L 256.26,329.95 L 257.15,327.92 L 258.08,325.84 L 258.61,324.70 L 259.71,322.32 L 260.35,321.00 L 261.50,318.75 L 262.52,316.87 L 263.12,315.80 L 265.71,311.28 L 267.06,309.00 L 268.40,306.76 L 269.03,305.74 L 270.25,303.77 L 270.77,302.95 L 271.75,301.45 L 272.10,300.94 L 272.72,300.10 L 272.85,300.00 L 273.42,299.41 L 274.06,298.68 L 274.49,298.18 L 275.39,297.11 L 275.90,296.49 L 276.95,295.20 L 277.50,294.51 L 284.62,286.47 L 289.79,281.40 L 292.57,279.02 L 298.26,274.37 L 301.28,272.22 L 307.43,268.02 L 310.67,266.10 L 317.24,262.38 L 320.67,260.72 L 327.62,257.51 L 331.21,256.10 L 338.47,253.43 L 342.21,252.31 L 349.75,250.21 L 353.60,249.38 L 359.72,248.37 L 364.29,247.88 L 366.75,247.73 L 371.77,247.49 L 374.38,247.46 L 379.66,247.45 M 377.99,407.67 L 377.43,408.45 L 376.71,409.49 L 376.20,410.24 L 375.07,411.90 L 374.39,412.93 L 372.93,415.09 L 372.10,416.34 L 370.37,418.92 L 369.43,420.33 L 367.49,423.23 L 366.47,424.77 L 362.27,431.09 L 360.11,434.35 L 355.81,440.85 L 353.80,443.90 L 351.83,446.90 L 350.91,448.29 L 349.12,451.01 L 348.32,452.23 L 346.79,454.58 L 346.14,455.57 L 344.93,457.44 L 344.46,458.17 L 343.63,459.46 L 343.38,459.86 L 343.00,460.49 L 343.00,460.52 L 343.51,460.85 L 344.25,461.09 L 344.73,461.18 L 345.48,461.27 L 346.18,461.31 L 347.78,461.40 L 348.86,461.43 L 351.18,461.50 L 352.57,461.53 L 355.50,461.59 L 357.15,461.61 L 360.56,461.66 L 362.41,461.68 L 366.18,461.71 L 368.16,461.72 L 376.30,461.75 L 380.45,461.75 L 388.71,461.74 L 392.56,461.71 L 396.34,461.68 L 398.10,461.66 L 401.52,461.62 L 403.06,461.60 L 406.00,461.55 L 407.24,461.52 L 409.58,461.45 L 410.49,461.41 L 412.10,461.34 L 412.60,461.29 L 413.37,461.20 L 413.40,461.16 L 413.34,460.73 L 413.14,460.21 L 412.96,459.84 L 412.56,459.04 L 412.29,458.54 L 411.72,457.49 L 411.37,456.89 L 409.83,454.28 L 408.87,452.76 L 406.85,449.57 L 405.72,447.86 L 403.88,445.08 L 402.52,443.02 L 401.79,441.91 L 398.76,437.31 L 397.16,434.89 L 393.95,430.02 L 392.41,427.68 L 389.41,423.11 L 388.13,421.14 L 384.43,415.66 L 383.29,414.04 L 382.76,413.31 L 381.74,411.90 L 381.28,411.29 L 380.40,410.13 L 380.02,409.66 L 379.31,408.80 L 379.03,408.48 L 378.51,407.94 L 378.34,407.80 L 378.04,407.62 M 379.00,296.00 L 378.60,296.30 L 378.16,296.78 L 377.86,297.15 L 377.21,297.96 L 376.82,298.47 L 376.01,299.56 L 375.55,300.19 L 373.59,302.92 L 372.49,304.51 L 370.23,307.81 L 369.07,309.53 L 366.78,312.97 L 365.71,314.62 L 363.66,317.81 L 362.81,319.18 L 362.00,320.50 L 361.66,321.08 L 361.02,322.17 L 360.77,322.62 L 360.33,323.44 L 360.20,323.72 L 360.00,324.22 L 360.00,324.32 L 360.18,324.81 L 360.47,325.39 L 360.69,325.80 L 361.18,326.67 L 361.50,327.21 L 362.17,328.35 L 362.57,329.00 L 364.31,331.81 L 365.35,333.45 L 367.55,336.87 L 368.75,338.69 L 371.13,342.26 L 372.23,343.84 L 374.34,346.86 L 375.22,348.06 L 376.07,349.20 L 376.44,349.68 L 377.14,350.56 L 377.42,350.90 L 377.94,351.49 L 378.12,351.67 L 378.43,351.94 L 378.50,351.94 L 378.90,351.64 L 379.34,351.16 L 379.63,350.79 L 380.26,349.99 L 380.64,349.49 L 381.44,348.41 L 381.88,347.79 L 383.79,345.08 L 384.87,343.51 L 387.07,340.26 L 388.19,338.56 L 390.42,335.15 L 391.45,333.53 L 393.45,330.36 L 394.27,329.01 L 395.06,327.70 L 395.39,327.13 L 396.01,326.04 L 396.25,325.60 L 396.68,324.79 L 396.81,324.50 L 397.00,324.01 L 397.00,323.90 L 396.87,323.51 L 396.66,323.06 L 396.49,322.76 L 395.70,321.33 L 395.12,320.36 L 393.87,318.28 L 393.12,317.07 L 391.55,314.56 L 390.70,313.22 L 387.19,307.77 L 385.56,305.33 L 383.97,302.98 L 383.28,302.00 L 381.98,300.18 L 381.50,299.55 L 380.44,297.93 L 380.00,297.02 L 380.00,296.80 L 379.71,296.23 L 379.28,296.00 M 509.50,293.53 L 507.90,302.60 L 507.45,304.93 L 506.37,309.82 L 505.20,314.69 L 505.81,312.06 L 506.25,310.03 L 507.13,305.93 L 507.55,303.85 L 508.36,299.71 L 508.72,297.72 L 509.40,293.79 L 509.67,292.00 L 509.74,291.47 M 511.37,266.30 L 511.32,269.20 L 511.13,274.53 L 511.01,277.14 L 510.69,282.00 L 510.51,284.39 L 510.44,285.02 L 510.80,280.29 L 510.95,277.32 L 511.23,271.19 L 511.32,267.93 L 511.40,264.43 M 499.04,176.00 L 500.19,179.50 L 502.23,186.21 L 503.20,189.53 L 504.88,195.98 L 505.68,199.19 L 507.04,205.53 L 507.68,208.69 L 508.73,215.05 L 509.22,218.24 L 509.49,220.50 L 506.76,205.24 L 503.83,192.42 L 502.09,186.20 L 500.31,180.02 L 499.37,177.01 L 499.04,175.99 M 471.75,118.32 L 474.01,121.89 L 474.44,122.63 L 474.18,122.19 L 471.55,118.01 M 464.70,107.81 L 467.13,111.25 L 468.75,113.73 L 468.13,112.81 L 464.16,107.07 M 422.34,61.30 L 425.53,64.04 L 431.71,69.74 L 434.76,72.62 L 440.65,78.62 L 443.55,81.66 L 449.13,87.94 L 451.89,91.12 L 457.16,97.68 L 459.75,100.99 L 463.24,105.80 L 461.71,103.73 L 457.25,97.83 L 454.93,94.95 L 450.23,89.26 L 447.80,86.50 L 442.87,81.02 L 440.32,78.37 L 435.17,73.12 L 432.52,70.58 L 427.15,65.56 L 424.39,63.14 L 418.86,58.40 M 412.55,53.34 L 415.88,55.91 L 418.79,58.34 L 415.95,56.07 L 410.78,52.00 M 402.35,45.86 L 405.82,48.27 L 409.24,50.84 L 407.22,49.36 L 401.84,45.51 M 395.36,41.12 L 398.79,43.44 L 398.20,43.05 L 392.67,39.44 M 384.53,34.49 L 388.03,36.61 L 383.05,33.67 M 376.85,30.29 L 372.82,28.14 L 369.50,26.51 L 373.33,28.39 Z" fill="rgba(33,103,248,1)"/>
<path d="M 272.60,455.23 L 270.69,452.87 L 269.90,451.77 L 270.21,452.20 L 270.91,453.05 L 271.24,453.44 L 271.82,453.99 L 272.09,454.22 L 272.53,454.43 L 273.01,454.34 L 273.04,454.31 L 273.26,454.01 L 273.39,453.82 L 273.81,453.21 L 274.04,452.87 L 274.65,451.97 L 274.98,451.48 L 275.77,450.31 L 276.19,449.68 L 277.15,448.25 L 277.66,447.50 L 278.78,445.82 L 279.94,444.08 L 282.70,439.94 L 284.14,437.77 L 286.30,434.53 M 269.79,451.61 L 269.59,451.34 L 269.44,451.11 M 150.69,238.16 L 151.17,238.41 L 151.53,238.61 L 152.34,239.06 L 152.87,239.36 L 154.00,239.99 L 154.68,240.37 L 156.11,241.18 L 156.93,241.64 L 158.65,242.61 L 159.61,243.15 L 161.59,244.27 L 162.67,244.89 L 164.90,246.15 L 166.10,246.83 L 171.12,249.68 L 173.94,251.28 L 179.75,254.59 L 182.90,256.39 L 189.36,260.07 L 192.78,262.02 L 199.74,265.99 L 203.35,268.06 L 255.95,298.12 L 256.22,313.14 L 256.50,328.16 L 259.50,322.33 L 260.99,319.54 L 262.19,317.39 L 262.85,316.22 L 265.65,311.37 L 265.80,311.12 L 265.71,311.28 L 263.12,315.80 L 262.52,316.87 L 261.50,318.75 L 260.35,321.00 L 259.71,322.32 L 258.61,324.70 L 258.08,325.84 L 257.15,327.92 L 256.26,329.95 L 254.86,333.50 L 254.20,335.26 L 253.08,338.80 L 251.42,344.88 L 251.08,346.20 L 250.38,349.36 L 250.03,351.00 L 249.37,354.46 L 249.05,356.20 L 248.49,359.55 L 247.88,364.00 L 247.73,365.26 L 247.52,368.21 L 247.43,369.75 L 247.33,373.11 L 247.26,376.54 L 247.40,383.88 L 247.46,385.69 L 247.64,389.23 L 247.75,390.96 L 248.01,394.20 L 248.16,395.77 L 248.50,398.54 L 249.10,401.97 L 249.42,403.36 L 249.96,405.77 L 250.22,406.91 L 250.67,408.86 L 250.89,409.79 L 251.26,411.36 L 251.43,412.10 L 251.74,413.36 L 252.04,414.56 L 252.53,416.30 L 253.23,418.50 L 253.86,420.34 L 255.46,424.35 L 256.30,426.39 L 258.20,430.60 L 259.17,432.71 L 261.22,436.85 L 262.25,438.89 L 264.31,442.71 L 265.13,444.20 L 264.30,442.75 L 259.82,435.00 L 256.10,435.00 L 252.64,428.75 L 252.55,428.59 L 252.15,427.84 L 251.90,427.39 L 251.20,426.08 L 250.82,425.36 L 249.84,423.54 L 249.32,422.57 L 248.09,420.26 L 247.44,419.05 L 245.97,416.30 L 245.21,414.87 L 243.52,411.70 L 242.65,410.07 L 240.77,406.53 L 239.80,404.72 L 237.73,400.84 L 236.68,398.86 L 234.45,394.67 L 233.31,392.54 L 230.94,388.09 L 228.53,383.57 L 223.37,373.88 L 220.75,368.95 L 215.26,358.63 L 212.49,353.42 L 206.82,342.77 L 203.98,337.43 L 198.28,326.73 L 195.45,321.39 L 189.88,310.92 L 187.12,305.73 L 181.82,295.76 L 179.22,290.87 L 174.35,281.70 L 173.16,279.47 L 170.90,275.20 L 169.78,273.11 L 167.68,269.14 L 166.65,267.19 L 164.71,263.56 L 163.77,261.78 L 162.04,258.51 L 161.20,256.92 L 159.67,254.05 L 158.94,252.67 L 157.65,250.24 L 157.04,249.08 L 156.00,247.12 L 154.75,244.75 L 154.33,243.96 L 153.52,242.52 L 153.13,241.83 L 152.41,240.69 L 152.08,240.17 L 151.55,239.45 L 151.05,239.00 L 150.90,239.00 L 150.29,239.67 L 149.94,240.11 L 148.98,241.52 L 148.47,242.31 L 147.27,244.30 L 146.65,245.35 L 145.30,247.74 L 143.93,250.21 L 141.13,255.65 L 140.46,256.99 L 139.57,258.86 L 140.14,257.50 L 141.58,254.55 L 144.52,248.81 L 146.04,246.32 L 147.58,243.71 L 148.48,242.12 L 148.84,241.45 L 149.49,240.20 L 149.69,239.76 L 150.00,239.02 L 150.00,238.90 L 150.11,238.26 L 150.28,238.00 L 150.38,238.00 M 255.96,435.00 L 252.66,435.00 L 250.57,434.91 M 248.62,434.83 L 246.51,434.74 L 245.57,434.66 M 256.34,429.37 L 256.26,429.52 L 256.11,429.90 L 256.08,430.24 L 256.02,431.01 L 256.03,431.55 L 256.05,432.69 L 256.08,433.04 L 256.16,433.60 L 256.24,433.68 L 256.42,433.70 L 256.57,433.53 L 256.90,433.06 L 257.13,432.65 L 257.70,430.98 L 257.50,430.10 L 257.10,429.70 L 256.59,429.35 M 217.96,429.08 L 216.68,428.73 L 216.48,428.66 M 208.64,425.80 L 207.75,425.47 L 207.62,425.41 M 203.10,423.47 L 201.45,422.74 L 201.37,422.70 M 494.89,316.77 L 495.67,318.41 L 493.85,314.99 M 129.01,296.25 L 129.01,296.21 L 129.01,296.21 M 277.50,294.51 L 281.86,289.44 L 283.82,287.37 M 129.23,294.23 L 129.55,291.55 L 129.55,291.55 M 130.28,287.66 L 129.90,289.62 L 129.68,290.84 L 129.90,289.63 L 130.27,287.68 L 130.50,286.63 L 130.50,286.61 M 130.58,286.28 L 130.98,284.46 L 130.98,284.45 M 462.37,277.30 L 464.08,278.80 L 462.17,277.16 L 461.76,276.84 M 451.93,269.46 L 455.45,272.01 L 456.24,272.62 L 450.69,268.78 L 447.55,266.72 M 331.21,256.10 L 327.62,257.51 L 320.67,260.72 L 317.24,262.38 L 310.67,266.10 L 309.10,267.03 L 309.69,266.66 L 313.90,264.13 L 316.04,262.96 L 320.33,260.68 L 322.50,259.65 L 325.50,258.31 L 327.80,257.36 L 329.06,256.87 L 334.32,254.90 L 336.39,254.20 M 433.23,258.92 L 440.88,262.70 L 444.60,264.88 L 446.37,265.99 L 438.33,261.58 L 434.08,259.40 L 428.04,256.86 M 414.62,252.08 L 416.27,252.59 L 419.65,253.65 L 421.50,254.27 L 424.34,255.40 L 411.69,251.26 M 342.21,252.31 L 341.60,252.49 L 343.55,251.89 L 344.72,251.55 L 346.98,250.92 L 347.96,250.68 L 348.48,250.56 M 362.81,240.49 L 364.46,242.90 L 365.32,244.44 L 365.48,244.93 L 366.28,245.87 L 366.80,246.11 L 367.18,246.22 L 368.01,246.41 L 368.56,246.49 L 369.78,246.65 L 370.56,246.73 L 372.23,246.86 L 373.27,246.93 L 375.49,247.06 L 376.83,247.12 L 379.66,247.25 L 381.34,247.32 L 387.62,247.63 L 391.40,247.88 L 393.13,248.03 L 396.49,248.35 L 398.06,248.55 L 401.14,248.97 L 402.63,249.23 L 408.48,250.39 L 409.49,250.66 L 405.19,249.79 L 402.93,249.38 L 398.03,248.71 L 395.53,248.40 L 390.31,247.96 L 387.68,247.76 L 382.33,247.53 L 379.66,247.45 L 374.38,247.46 L 371.77,247.49 L 366.75,247.73 L 364.29,247.88 L 359.72,248.37 L 353.60,249.38 L 352.92,249.53 L 353.87,249.08 L 354.36,248.64 L 355.30,247.60 L 355.82,246.80 L 356.35,245.93 L 356.64,245.41 L 357.25,244.30 L 357.60,243.64 L 360.71,237.81 Z" fill="rgba(103,198,254,1)"/>
<path d="M 260.38,0.55 L 266.48,0.63 L 269.44,0.69 L 274.85,0.88 L 277.49,1.00 L 282.42,1.34 L 284.84,1.53 L 289.51,2.04 L 291.83,2.31 L 296.45,3.02 L 298.77,3.39 L 303.56,4.31 L 305.99,4.80 L 311.15,5.97 L 319.57,8.01 L 321.97,8.62 L 326.47,9.83 L 328.68,10.44 L 332.86,11.67 L 336.99,12.92 L 344.75,15.65 L 348.62,17.08 L 356.52,20.43 L 358.55,21.32 L 362.78,23.28 L 369.50,26.51 L 372.82,28.14 L 379.33,31.61 L 382.56,33.38 L 388.89,37.12 L 392.04,39.03 L 398.20,43.05 L 401.25,45.09 L 407.22,49.36 L 410.18,51.53 L 415.95,56.07 L 418.82,58.36 L 424.39,63.14 L 427.15,65.56 L 432.52,70.58 L 435.17,73.12 L 440.32,78.37 L 442.87,81.02 L 447.80,86.50 L 450.23,89.26 L 454.93,94.95 L 457.25,97.83 L 461.71,103.73 L 463.91,106.71 L 468.13,112.81 L 470.21,115.89 L 474.18,122.19 L 476.13,125.37 L 479.84,131.86 L 481.66,135.13 L 485.11,141.80 L 489.97,152.00 L 491.10,154.50 L 493.28,159.81 L 494.35,162.51 L 496.42,168.18 L 497.44,171.05 L 499.37,177.01 L 500.31,180.02 L 502.09,186.20 L 503.83,192.42 L 506.76,205.24 L 510.20,224.50 L 510.33,225.35 L 510.54,227.35 L 510.65,228.39 L 510.83,230.72 L 510.92,231.93 L 511.07,234.56 L 511.14,235.90 L 511.25,238.78 L 511.36,241.70 L 511.47,248.06 L 511.51,251.30 L 511.49,257.98 L 511.47,261.32 L 511.32,267.93 L 511.23,271.19 L 510.95,277.32 L 510.80,280.29 L 510.40,285.54 L 510.29,286.78 L 510.06,289.03 L 509.67,292.00 L 509.40,293.79 L 508.72,297.72 L 508.36,299.71 L 507.55,303.85 L 507.13,305.93 L 506.25,310.03 L 505.81,312.06 L 504.93,315.89 L 504.49,317.74 L 503.65,321.03 L 503.24,322.59 L 502.52,325.10 L 502.34,325.67 L 502.03,326.62 L 501.88,327.06 L 501.61,327.72 L 501.49,328.02 L 501.27,328.37 L 501.03,328.52 L 500.92,328.45 L 500.44,327.73 L 500.16,327.29 L 499.42,325.96 L 499.02,325.23 L 498.11,323.45 L 496.65,320.49 L 494.89,316.77 L 490.66,309.53 L 488.45,305.95 L 483.40,299.07 L 480.78,295.68 L 475.00,289.24 L 472.03,286.08 L 465.64,280.18 L 462.37,277.30 L 455.45,272.01 L 451.93,269.46 L 444.60,264.88 L 440.88,262.70 L 433.23,258.92 L 421.50,254.27 L 419.65,253.65 L 416.27,252.59 L 414.62,252.08 L 411.53,251.21 L 408.48,250.39 L 402.63,249.23 L 401.14,248.97 L 398.06,248.55 L 396.49,248.35 L 393.13,248.03 L 391.40,247.88 L 387.62,247.63 L 381.34,247.32 L 379.66,247.25 L 376.83,247.12 L 375.49,247.06 L 373.27,246.93 L 372.23,246.86 L 370.56,246.73 L 369.78,246.65 L 368.56,246.49 L 368.01,246.41 L 367.18,246.22 L 366.80,246.11 L 366.28,245.87 L 365.48,244.93 L 365.32,244.44 L 364.46,242.90 L 362.81,240.49 L 360.71,237.81 L 357.60,243.64 L 357.25,244.30 L 356.64,245.41 L 356.35,245.93 L 355.82,246.80 L 355.30,247.60 L 354.36,248.64 L 353.87,249.08 L 352.74,249.61 L 350.50,250.14 L 349.79,250.26 L 347.96,250.68 L 346.98,250.92 L 344.72,251.55 L 343.55,251.89 L 341.01,252.68 L 339.71,253.09 L 337.02,253.99 L 334.32,254.90 L 329.06,256.87 L 327.80,257.36 L 325.50,258.31 L 322.50,259.65 L 320.33,260.68 L 316.04,262.96 L 313.90,264.13 L 309.69,266.66 L 307.60,267.96 L 303.53,270.72 L 301.51,272.12 L 297.60,275.07 L 295.67,276.56 L 291.97,279.67 L 290.15,281.24 L 286.71,284.47 L 285.02,286.11 L 281.86,289.44 L 277.50,294.51 L 276.95,295.20 L 275.90,296.49 L 275.39,297.11 L 274.49,298.18 L 274.06,298.68 L 273.42,299.41 L 272.85,300.00 L 272.73,300.10 L 272.13,300.92 L 271.78,301.42 L 270.81,302.91 L 270.29,303.72 L 269.06,305.70 L 268.43,306.74 L 267.05,309.03 L 265.65,311.37 L 262.85,316.22 L 262.19,317.39 L 260.99,319.54 L 259.50,322.33 L 256.50,328.16 L 256.22,313.14 L 255.95,298.12 L 203.35,268.06 L 199.74,265.99 L 192.78,262.02 L 189.36,260.07 L 182.90,256.39 L 179.75,254.59 L 173.94,251.28 L 171.12,249.68 L 166.10,246.83 L 164.90,246.15 L 162.67,244.89 L 161.59,244.27 L 159.61,243.15 L 158.65,242.61 L 156.93,241.64 L 156.11,241.18 L 154.68,240.37 L 154.00,239.99 L 152.87,239.36 L 152.34,239.06 L 151.53,238.61 L 151.17,238.41 L 150.69,238.16 L 150.38,238.00 L 150.28,238.00 L 150.11,238.26 L 150.00,238.90 L 150.00,239.02 L 149.69,239.76 L 149.49,240.20 L 148.84,241.45 L 148.48,242.12 L 147.58,243.71 L 146.04,246.32 L 144.52,248.81 L 141.58,254.55 L 140.14,257.50 L 137.47,263.86 L 136.18,267.07 L 133.94,273.63 L 131.26,283.25 L 130.98,284.46 L 130.50,286.63 L 130.27,287.68 L 129.90,289.63 L 129.55,291.55 L 129.10,295.26 L 129.01,296.21 L 128.88,298.24 L 128.82,299.28 L 128.74,301.57 L 128.71,302.75 L 128.67,305.43 L 128.66,310.00 L 128.67,312.07 L 128.74,315.86 L 128.79,317.70 L 128.96,321.12 L 129.16,324.46 L 129.93,330.48 L 130.39,333.45 L 131.76,339.35 L 132.15,340.86 L 133.06,344.00 L 134.65,348.99 L 135.93,352.82 L 139.11,360.29 L 140.80,363.99 L 144.77,371.14 L 146.85,374.68 L 151.55,381.45 L 153.99,384.79 L 159.37,391.13 L 162.14,394.24 L 168.16,400.09 L 171.24,402.95 L 177.83,408.24 L 181.19,410.82 L 188.30,415.50 L 199.50,421.77 L 201.45,422.74 L 205.63,424.58 L 207.75,425.47 L 212.19,427.12 L 216.68,428.73 L 226.05,431.30 L 228.39,431.88 L 233.05,432.86 L 235.37,433.32 L 239.92,434.02 L 242.17,434.34 L 246.51,434.74 L 252.66,435.00 L 259.82,435.00 L 264.30,442.75 L 265.53,444.88 L 268.02,448.92 L 268.60,449.83 L 269.59,451.34 L 270.69,452.87 L 272.60,455.23 L 304.26,407.37 L 306.44,404.07 L 310.68,397.66 L 312.77,394.50 L 316.78,388.45 L 318.75,385.48 L 322.42,379.92 L 324.21,377.22 L 327.47,372.31 L 329.03,369.95 L 331.77,365.83 L 332.42,364.85 L 333.60,363.07 L 334.17,362.22 L 335.19,360.68 L 335.68,359.95 L 336.52,358.68 L 336.92,358.08 L 337.58,357.09 L 337.89,356.63 L 338.35,355.94 L 338.81,355.26 L 341.70,351.02 L 360.93,379.89 L 348.72,398.28 L 347.88,399.55 L 345.97,402.43 L 344.98,403.92 L 342.83,407.16 L 340.63,410.48 L 335.83,417.75 L 333.41,421.42 L 328.59,428.72 L 327.42,430.50 L 325.16,433.93 L 322.00,438.73 L 321.23,439.90 L 319.81,442.05 L 319.12,443.10 L 317.84,445.04 L 316.59,446.92 L 314.46,450.06 L 313.45,451.54 L 311.76,453.96 L 310.96,455.08 L 309.63,456.86 L 309.00,457.68 L 307.96,458.91 L 307.47,459.47 L 306.64,460.26 L 306.25,460.60 L 305.57,461.04 L 304.62,461.39 L 304.43,461.44 L 303.80,461.52 L 303.46,461.56 L 302.56,461.63 L 301.61,461.70 L 299.08,461.82 L 297.73,461.88 L 294.66,461.95 L 289.78,462.00 L 277.81,462.00 L 281.85,466.83 L 282.40,467.48 L 283.79,468.97 L 284.53,469.75 L 286.25,471.43 L 288.03,473.15 L 292.18,476.83 L 294.29,478.65 L 298.56,482.07 L 299.60,482.88 L 301.58,484.35 L 304.31,486.23 L 305.46,486.98 L 307.59,488.43 L 308.07,488.76 L 308.84,489.31 L 309.60,489.89 L 309.68,489.95 L 310.03,490.17 L 310.24,490.30 L 310.84,490.64 L 311.49,491.00 L 313.38,492.01 L 314.41,492.54 L 316.87,493.80 L 320.92,495.81 L 331.12,500.82 L 325.81,502.36 L 324.79,502.66 L 322.48,503.27 L 321.28,503.59 L 318.69,504.22 L 316.04,504.87 L 310.16,506.15 L 307.17,506.78 L 301.01,507.96 L 292.00,509.50 L 291.22,509.62 L 289.39,509.85 L 288.44,509.97 L 286.30,510.18 L 284.10,510.38 L 278.95,510.74 L 276.29,510.90 L 270.49,511.17 L 267.55,511.29 L 261.46,511.45 L 258.42,511.53 L 252.41,511.59 L 249.45,511.61 L 243.87,511.55 L 241.17,511.51 L 236.38,511.34 L 235.25,511.29 L 233.21,511.16 L 232.22,511.10 L 230.50,510.94 L 224.18,510.28 L 211.75,508.31 L 205.57,507.22 L 193.43,504.38 L 187.41,502.86 L 175.61,499.18 L 169.76,497.24 L 158.33,492.76 L 152.67,490.42 L 141.66,485.17 L 136.20,482.44 L 125.63,476.43 L 120.40,473.33 L 110.31,466.60 L 105.33,463.15 L 95.75,455.72 L 91.03,451.93 L 82.00,443.84 L 77.56,439.71 L 69.12,430.99 L 64.97,426.55 L 57.15,417.21 L 53.32,412.47 L 46.16,402.56 L 42.66,397.53 L 36.19,387.07 L 33.04,381.77 L 27.30,370.78 L 24.52,365.22 L 19.54,353.74 L 12.96,336.00 L 11.81,332.50 L 9.77,325.79 L 8.80,322.47 L 7.12,316.02 L 6.32,312.81 L 4.96,306.47 L 4.32,303.31 L 3.27,296.95 L 2.78,293.76 L 2.01,287.25 L 1.66,283.96 L 1.16,277.16 L 0.94,273.71 L 0.68,266.48 L 0.54,255.00 L 0.55,251.62 L 0.63,245.52 L 0.69,242.56 L 0.88,237.15 L 1.00,234.51 L 1.34,229.58 L 1.53,227.16 L 2.04,222.49 L 2.31,220.17 L 3.02,215.55 L 3.39,213.23 L 4.31,208.44 L 4.80,206.01 L 5.97,200.85 L 8.01,192.43 L 8.62,190.03 L 9.83,185.53 L 10.44,183.32 L 11.67,179.14 L 12.92,175.01 L 15.65,167.25 L 17.08,163.38 L 20.43,155.48 L 21.32,153.45 L 23.28,149.22 L 26.51,142.50 L 28.39,138.67 L 32.43,131.18 L 34.49,127.47 L 38.88,120.23 L 41.12,116.64 L 45.86,109.65 L 48.27,106.18 L 53.34,99.45 L 55.91,96.12 L 61.30,89.66 L 64.04,86.47 L 69.74,80.29 L 72.62,77.24 L 78.62,71.35 L 81.66,68.45 L 87.94,62.87 L 91.12,60.11 L 97.68,54.84 L 100.99,52.25 L 107.81,47.30 L 111.25,44.87 L 118.32,40.25 L 121.89,37.99 L 129.20,33.71 L 132.89,31.62 L 140.43,27.70 L 144.22,25.78 L 151.98,22.23 L 155.88,20.49 L 163.84,17.31 L 176.00,12.96 L 179.50,11.81 L 186.21,9.77 L 189.53,8.80 L 195.98,7.12 L 199.19,6.32 L 205.53,4.96 L 208.69,4.32 L 215.05,3.27 L 218.24,2.78 L 224.75,2.01 L 228.04,1.66 L 234.84,1.16 L 238.29,0.94 L 245.52,0.68 L 257.00,0.54 M 378.34,407.80 L 378.51,407.94 L 379.03,408.48 L 379.31,408.80 L 380.02,409.66 L 380.40,410.13 L 381.28,411.29 L 381.74,411.90 L 382.76,413.31 L 383.29,414.04 L 384.43,415.66 L 388.13,421.14 L 389.41,423.11 L 392.41,427.68 L 393.95,430.02 L 397.16,434.89 L 398.76,437.31 L 401.79,441.91 L 402.52,443.02 L 403.88,445.08 L 405.72,447.86 L 406.85,449.57 L 408.87,452.76 L 409.83,454.28 L 411.37,456.89 L 411.72,457.49 L 412.29,458.54 L 412.56,459.04 L 412.96,459.84 L 413.14,460.21 L 413.34,460.73 L 413.40,461.16 L 413.37,461.20 L 412.60,461.29 L 412.10,461.34 L 410.49,461.41 L 409.58,461.45 L 407.24,461.52 L 406.00,461.55 L 403.06,461.60 L 401.52,461.62 L 398.10,461.66 L 396.34,461.68 L 392.56,461.71 L 388.71,461.74 L 380.45,461.75 L 376.30,461.75 L 368.16,461.72 L 366.18,461.71 L 362.41,461.68 L 360.56,461.66 L 357.15,461.61 L 355.50,461.59 L 352.57,461.53 L 351.18,461.50 L 348.86,461.43 L 347.78,461.40 L 346.18,461.31 L 345.48,461.27 L 344.73,461.18 L 344.25,461.09 L 343.51,460.85 L 343.00,460.52 L 343.00,460.49 L 343.38,459.86 L 343.63,459.46 L 344.46,458.17 L 344.93,457.44 L 346.14,455.57 L 346.79,454.58 L 348.32,452.23 L 349.12,451.01 L 350.91,448.29 L 351.83,446.90 L 353.80,443.90 L 355.81,440.85 L 360.11,434.35 L 362.27,431.09 L 366.47,424.77 L 367.49,423.23 L 369.43,420.33 L 370.37,418.92 L 372.10,416.34 L 372.93,415.09 L 374.39,412.93 L 375.07,411.90 L 376.20,410.24 L 376.71,409.49 L 377.43,408.45 L 377.99,407.67 L 378.04,407.62 M 415.62,351.21 L 415.72,351.36 L 416.06,351.84 L 416.25,352.12 L 416.76,352.86 L 417.03,353.27 L 417.70,354.25 L 418.06,354.78 L 418.88,356.00 L 419.31,356.63 L 420.27,358.07 L 421.27,359.56 L 423.65,363.12 L 424.89,364.99 L 427.72,369.23 L 429.18,371.42 L 432.38,376.23 L 434.02,378.70 L 437.51,383.96 L 443.00,392.25 L 446.75,397.92 L 454.17,409.13 L 455.98,411.88 L 459.47,417.16 L 461.19,419.75 L 464.41,424.61 L 465.97,426.98 L 468.83,431.29 L 470.20,433.36 L 472.59,436.97 L 473.15,437.83 L 474.18,439.38 L 474.67,440.12 L 475.55,441.45 L 475.97,442.08 L 476.68,443.17 L 477.57,444.50 L 484.85,455.50 L 480.25,461.50 L 466.37,461.65 L 464.47,461.67 L 460.87,461.67 L 459.13,461.67 L 456.13,461.63 L 455.44,461.61 L 454.21,461.58 L 453.64,461.56 L 452.68,461.52 L 452.24,461.50 L 451.58,461.45 L 451.30,461.42 L 451.00,461.37 L 450.95,461.35 L 450.71,461.11 L 450.57,460.96 L 450.16,460.45 L 449.93,460.17 L 449.35,459.41 L 449.05,459.00 L 448.32,458.00 L 447.55,456.94 L 445.60,454.17 L 444.56,452.69 L 442.12,449.15 L 440.84,447.29 L 437.99,443.08 L 436.52,440.91 L 433.33,436.15 L 431.70,433.71 L 428.25,428.52 L 422.87,420.36 L 396.24,379.78 L 402.26,370.64 L 403.92,368.13 L 407.53,362.64 L 408.39,361.34 L 409.92,359.01 L 411.74,356.25 L 412.21,355.53 L 413.10,354.21 L 413.53,353.58 L 414.25,352.54 L 414.59,352.07 L 415.08,351.41 L 415.45,351.00 L 415.46,351.00 M 257.10,429.70 L 257.50,430.10 L 257.70,430.98 L 257.13,432.65 L 256.90,433.06 L 256.57,433.53 L 256.42,433.70 L 256.24,433.68 L 256.16,433.60 L 256.08,433.04 L 256.05,432.69 L 256.03,431.55 L 256.02,431.01 L 256.08,430.24 L 256.11,429.90 L 256.26,429.52 L 256.34,429.37 L 256.59,429.35 M 379.71,296.23 L 380.00,296.80 L 380.00,297.02 L 380.44,297.93 L 381.50,299.55 L 381.98,300.18 L 383.28,302.00 L 383.97,302.98 L 385.56,305.33 L 387.19,307.77 L 390.70,313.22 L 391.55,314.56 L 393.12,317.07 L 393.87,318.28 L 395.12,320.36 L 395.70,321.33 L 396.49,322.76 L 396.66,323.06 L 396.87,323.51 L 397.00,323.90 L 397.00,324.01 L 396.81,324.50 L 396.68,324.79 L 396.25,325.60 L 396.01,326.04 L 395.39,327.13 L 395.06,327.70 L 394.27,329.01 L 393.45,330.36 L 391.45,333.53 L 390.42,335.15 L 388.19,338.56 L 387.07,340.26 L 384.87,343.51 L 383.79,345.08 L 381.88,347.79 L 381.44,348.41 L 380.64,349.49 L 380.26,349.99 L 379.63,350.79 L 379.34,351.16 L 378.90,351.64 L 378.50,351.94 L 378.43,351.94 L 378.12,351.67 L 377.94,351.49 L 377.42,350.90 L 377.14,350.56 L 376.44,349.68 L 376.07,349.20 L 375.22,348.06 L 374.34,346.86 L 372.23,343.84 L 371.13,342.26 L 368.75,338.69 L 367.55,336.87 L 365.35,333.45 L 364.31,331.81 L 362.57,329.00 L 362.17,328.35 L 361.50,327.21 L 361.18,326.67 L 360.69,325.80 L 360.47,325.39 L 360.18,324.81 L 360.00,324.32 L 360.00,324.22 L 360.20,323.72 L 360.33,323.44 L 360.77,322.62 L 361.02,322.17 L 361.66,321.08 L 362.00,320.50 L 362.81,319.18 L 363.66,317.81 L 365.71,314.62 L 366.78,312.97 L 369.07,309.53 L 370.23,307.81 L 372.49,304.51 L 373.59,302.92 L 375.55,300.19 L 376.01,299.56 L 376.82,298.47 L 377.21,297.96 L 377.86,297.15 L 378.16,296.78 L 378.60,296.30 L 379.00,296.00 L 379.28,296.00 M 256.30,78.50 L 255.96,78.84 L 255.52,79.40 L 255.20,79.84 L 254.48,80.82 L 254.03,81.46 L 253.06,82.84 L 252.48,83.67 L 251.27,85.42 L 250.58,86.44 L 249.14,88.55 L 248.34,89.73 L 246.69,92.17 L 245.79,93.51 L 243.94,96.26 L 242.95,97.74 L 240.92,100.78 L 239.84,102.40 L 237.65,105.70 L 236.49,107.44 L 231.72,114.65 L 229.14,118.57 L 223.87,126.59 L 221.08,130.84 L 215.42,139.50 L 212.49,144.00 L 203.88,157.21 L 198.37,165.67 L 195.78,169.65 L 190.69,177.45 L 188.35,181.03 L 186.04,184.57 L 184.95,186.24 L 182.80,189.53 L 181.79,191.08 L 179.81,194.11 L 178.89,195.51 L 177.10,198.25 L 176.28,199.51 L 174.69,201.94 L 173.97,203.03 L 172.60,205.12 L 172.00,206.04 L 170.85,207.78 L 170.38,208.51 L 169.48,209.86 L 169.13,210.39 L 168.50,211.35 L 168.29,211.67 L 167.93,212.20 L 167.86,212.29 L 165.88,215.08 L 168.19,217.01 L 170.01,218.38 L 170.51,218.70 L 170.71,218.80 L 171.05,218.96 L 171.13,218.97 L 171.85,219.33 L 172.93,219.91 L 173.74,220.36 L 175.54,221.36 L 176.68,221.99 L 179.11,223.35 L 180.54,224.15 L 183.53,225.83 L 185.20,226.77 L 188.67,228.72 L 190.55,229.78 L 194.40,231.96 L 196.44,233.11 L 200.60,235.46 L 202.77,236.69 L 211.64,241.71 L 216.22,244.31 L 225.41,249.53 L 229.90,252.09 L 234.36,254.62 L 236.52,255.86 L 240.79,258.29 L 242.82,259.45 L 246.82,261.74 L 248.69,262.81 L 252.34,264.90 L 254.00,265.86 L 254.31,265.94 L 254.45,265.76 L 254.70,265.24 L 254.80,264.66 L 254.90,264.02 L 254.95,263.61 L 255.04,262.72 L 255.08,262.16 L 255.16,260.98 L 255.19,260.27 L 255.26,258.77 L 255.29,257.89 L 255.35,256.03 L 255.38,254.97 L 255.43,252.73 L 255.45,251.45 L 255.50,248.80 L 255.52,247.31 L 255.56,244.21 L 255.57,242.48 L 255.61,238.90 L 255.63,236.91 L 255.66,232.82 L 255.67,230.57 L 255.70,225.94 L 255.72,223.40 L 255.74,218.19 L 255.76,215.36 L 255.82,205.04 L 255.87,198.49 L 255.89,195.42 L 255.94,189.43 L 255.97,186.70 L 256.03,181.41 L 256.06,179.09 L 256.12,174.65 L 256.15,172.80 L 256.18,171.02 L 256.20,170.22 L 256.23,168.70 L 256.24,168.05 L 256.27,166.82 L 256.29,166.32 L 256.32,165.39 L 256.33,165.05 L 256.36,164.44 L 256.38,164.27 L 256.40,164.00 L 256.42,164.00 L 256.68,164.13 L 257.07,164.33 L 257.36,164.50 L 258.02,164.86 L 258.45,165.10 L 259.36,165.61 L 259.91,165.92 L 262.35,167.29 L 263.90,168.17 L 267.20,170.04 L 269.14,171.14 L 273.19,173.45 L 275.46,174.74 L 280.15,177.41 L 282.69,178.87 L 287.89,181.84 L 290.65,183.42 L 296.25,186.63 L 299.16,188.30 L 306.70,192.63 L 311.29,195.26 L 313.37,196.45 L 317.40,198.76 L 319.22,199.80 L 322.74,201.81 L 324.31,202.70 L 327.34,204.43 L 328.69,205.19 L 331.27,206.65 L 332.40,207.29 L 334.57,208.50 L 335.51,209.02 L 337.31,210.01 L 338.07,210.43 L 339.52,211.21 L 340.13,211.53 L 341.27,212.13 L 341.74,212.36 L 342.61,212.79 L 342.96,212.95 L 343.59,213.23 L 343.83,213.32 L 344.60,213.56 L 344.77,213.53 L 344.98,213.38 L 344.97,213.22 L 344.71,212.68 L 344.30,211.96 L 343.98,211.43 L 343.26,210.25 L 342.79,209.50 L 341.79,207.89 L 341.19,206.94 L 339.92,204.95 L 339.20,203.81 L 337.69,201.46 L 336.85,200.15 L 335.13,197.47 L 334.19,196.02 L 332.27,193.04 L 331.24,191.45 L 329.14,188.21 L 328.03,186.50 L 325.77,183.03 L 324.59,181.22 L 319.74,173.78 L 317.16,169.85 L 311.93,161.84 L 309.22,157.72 L 303.76,149.41 L 301.01,145.22 L 295.50,136.86 L 292.78,132.75 L 287.39,124.59 L 284.80,120.68 L 279.70,112.99 L 277.32,109.40 L 274.97,105.87 L 273.84,104.19 L 271.63,100.87 L 270.59,99.31 L 268.54,96.25 L 267.59,94.83 L 265.72,92.06 L 264.87,90.79 L 263.21,88.33 L 262.46,87.23 L 261.03,85.13 L 260.41,84.22 L 259.22,82.50 L 258.73,81.79 L 257.82,80.48 L 257.47,79.99 L 256.84,79.13 L 256.65,78.88 L 256.33,78.50 Z" fill="rgba(254,254,253,1)"/>
<path d="M 216.22,244.31 L 225.41,249.53 L 229.90,252.09 L 234.36,254.62 L 236.52,255.86 L 240.79,258.29 L 242.83,259.46 L 246.82,261.74 L 248.69,262.81 L 251.53,264.44 L 248.69,262.81 L 246.82,261.74 L 242.82,259.45 L 240.79,258.29 L 236.52,255.86 L 234.36,254.62 L 229.90,252.09 L 225.41,249.53 L 216.22,244.31 L 211.64,241.71 M 171.05,218.96 L 171.13,218.97 L 171.05,218.96 M 166.18,214.98 L 166.47,215.35 L 166.68,215.57 L 167.65,216.53 L 168.23,217.03 L 168.42,217.18 L 168.19,217.01 L 165.88,215.08 L 166.09,214.78 M 256.65,78.88 L 256.84,79.13 L 257.47,79.99 L 257.82,80.48 L 258.73,81.79 L 259.22,82.50 L 260.41,84.22 L 261.03,85.13 L 262.46,87.23 L 263.21,88.33 L 264.87,90.79 L 265.72,92.06 L 267.59,94.83 L 268.54,96.25 L 270.59,99.31 L 271.63,100.87 L 273.84,104.19 L 274.97,105.87 L 277.32,109.40 L 279.70,112.99 L 284.80,120.68 L 287.39,124.59 L 292.78,132.75 L 295.50,136.86 L 301.01,145.22 L 303.76,149.41 L 309.22,157.72 L 311.93,161.84 L 317.16,169.85 L 319.74,173.78 L 324.59,181.22 L 325.77,183.03 L 328.03,186.50 L 329.14,188.21 L 331.24,191.45 L 332.27,193.04 L 334.19,196.02 L 335.13,197.47 L 336.85,200.15 L 337.69,201.46 L 339.20,203.81 L 339.92,204.95 L 341.19,206.94 L 341.79,207.89 L 342.79,209.50 L 343.26,210.25 L 343.98,211.43 L 344.30,211.96 L 344.71,212.68 L 344.97,213.22 L 344.98,213.38 L 344.77,213.53 L 344.60,213.56 L 343.83,213.32 L 343.59,213.23 L 342.96,212.95 L 342.61,212.79 L 341.74,212.36 L 341.27,212.13 L 340.13,211.53 L 339.52,211.21 L 338.07,210.43 L 337.31,210.01 L 335.51,209.02 L 334.57,208.50 L 332.40,207.29 L 331.27,206.65 L 328.69,205.19 L 327.34,204.43 L 324.31,202.70 L 322.74,201.81 L 319.22,199.80 L 317.40,198.76 L 313.37,196.45 L 311.29,195.26 L 306.70,192.63 L 299.16,188.30 L 296.25,186.63 L 290.65,183.42 L 287.89,181.84 L 282.69,178.87 L 280.15,177.41 L 275.46,174.74 L 273.19,173.45 L 269.14,171.14 L 267.20,170.04 L 263.90,168.17 L 262.35,167.29 L 259.91,165.92 L 259.36,165.61 L 258.45,165.10 L 258.02,164.86 L 257.36,164.50 L 257.07,164.33 L 256.68,164.13 L 256.42,164.00 L 256.40,164.00 L 256.38,164.27 L 256.36,164.44 L 256.33,165.05 L 256.32,165.39 L 256.29,166.32 L 256.27,166.82 L 256.24,168.05 L 256.23,168.70 L 256.20,170.22 L 256.18,171.02 L 256.15,172.80 L 256.12,174.65 L 256.06,179.09 L 256.03,181.41 L 255.97,186.70 L 255.94,189.43 L 255.89,195.42 L 255.87,198.49 L 255.82,205.04 L 255.76,214.34 L 255.80,205.44 L 255.82,198.92 L 255.83,195.86 L 255.83,189.89 L 255.83,187.16 L 255.83,181.88 L 255.82,179.55 L 255.80,175.10 L 255.79,173.24 L 255.78,171.45 L 255.77,170.65 L 255.75,169.12 L 255.74,168.46 L 255.72,167.21 L 255.71,166.69 L 255.69,165.75 L 255.68,165.39 L 255.66,164.76 L 255.64,164.57 L 255.62,164.28 L 255.60,164.27 L 255.33,164.36 L 254.93,164.54 L 254.63,164.70 L 253.95,165.04 L 253.51,165.28 L 252.56,165.78 L 251.99,166.08 L 250.80,166.73 L 250.11,167.11 L 248.68,167.89 L 247.88,168.33 L 244.48,170.22 L 242.48,171.34 L 238.30,173.68 L 235.96,175.00 L 231.12,177.73 L 228.50,179.22 L 223.13,182.27 L 220.29,183.90 L 214.51,187.20 L 211.51,188.93 L 202.72,193.96 L 197.12,197.16 L 194.48,198.66 L 189.34,201.58 L 186.98,202.92 L 182.42,205.50 L 180.40,206.63 L 176.54,208.80 L 174.92,209.70 L 173.35,210.57 L 172.65,210.96 L 171.30,211.70 L 170.72,212.02 L 169.62,212.62 L 169.16,212.87 L 168.32,213.32 L 168.00,213.49 L 167.42,213.78 L 167.24,213.87 L 166.95,214.00 L 166.92,214.00 L 166.58,214.09 L 167.86,212.29 L 167.93,212.20 L 168.29,211.67 L 168.50,211.35 L 169.13,210.39 L 169.48,209.86 L 170.38,208.51 L 170.85,207.78 L 172.00,206.04 L 172.60,205.12 L 173.97,203.03 L 174.69,201.94 L 176.28,199.51 L 177.10,198.25 L 178.89,195.51 L 179.81,194.11 L 181.79,191.08 L 182.80,189.53 L 184.95,186.24 L 186.04,184.57 L 188.35,181.03 L 190.69,177.45 L 195.78,169.65 L 198.37,165.67 L 203.88,157.21 L 212.49,144.00 L 215.42,139.50 L 221.08,130.84 L 223.87,126.59 L 229.14,118.57 L 231.72,114.65 L 236.49,107.44 L 237.65,105.70 L 239.84,102.40 L 240.92,100.78 L 242.95,97.74 L 243.94,96.26 L 245.79,93.51 L 246.69,92.17 L 248.34,89.73 L 249.14,88.55 L 250.58,86.44 L 251.27,85.42 L 252.48,83.67 L 253.06,82.84 L 254.03,81.46 L 254.48,80.82 L 255.20,79.84 L 255.52,79.40 L 255.96,78.84 L 256.30,78.50 L 256.33,78.50 Z" fill="rgba(255,165,0,1)"/>
<path d="M 254.00,265.86 L 252.34,264.90 L 248.69,262.81 L 246.82,261.74 L 242.83,259.46 L 240.79,258.29 L 236.52,255.86 L 234.36,254.62 L 229.90,252.09 L 225.41,249.53 L 216.22,244.31 L 211.64,241.71 L 202.77,236.69 L 200.61,235.46 L 196.45,233.11 L 194.40,231.96 L 190.55,229.78 L 188.67,228.72 L 185.21,226.78 L 183.53,225.83 L 180.54,224.15 L 179.11,223.35 L 176.68,221.99 L 175.54,221.36 L 173.74,220.36 L 172.93,219.91 L 171.85,219.33 L 171.13,218.97 L 170.91,218.96 L 169.96,218.36 L 169.43,218.01 L 168.23,217.03 L 167.65,216.53 L 166.68,215.57 L 166.47,215.35 L 166.18,214.98 L 166.00,214.59 L 166.00,214.43 L 166.27,214.17 L 166.92,214.00 L 166.95,214.00 L 167.24,213.87 L 167.42,213.78 L 168.00,213.49 L 168.32,213.32 L 169.16,212.87 L 169.62,212.62 L 170.72,212.02 L 171.30,211.70 L 172.65,210.96 L 173.35,210.57 L 174.92,209.70 L 176.54,208.80 L 180.40,206.63 L 182.42,205.50 L 186.98,202.92 L 189.34,201.58 L 194.48,198.66 L 197.12,197.16 L 202.72,193.96 L 211.51,188.93 L 214.51,187.20 L 220.29,183.90 L 223.13,182.27 L 228.50,179.22 L 231.12,177.73 L 235.96,175.00 L 238.30,173.68 L 242.48,171.34 L 244.48,170.22 L 247.88,168.33 L 248.68,167.89 L 250.11,167.11 L 250.80,166.73 L 251.99,166.08 L 252.56,165.78 L 253.51,165.28 L 253.95,165.04 L 254.63,164.70 L 254.93,164.54 L 255.33,164.36 L 255.60,164.27 L 255.62,164.28 L 255.64,164.57 L 255.66,164.76 L 255.68,165.39 L 255.69,165.75 L 255.71,166.69 L 255.72,167.21 L 255.74,168.46 L 255.75,169.12 L 255.77,170.65 L 255.78,171.45 L 255.79,173.24 L 255.80,175.10 L 255.82,179.55 L 255.83,181.88 L 255.83,187.16 L 255.83,189.89 L 255.83,195.86 L 255.82,198.92 L 255.80,205.44 L 255.76,215.70 L 255.74,218.52 L 255.72,223.69 L 255.70,226.21 L 255.67,230.81 L 255.66,233.05 L 255.63,237.11 L 255.61,239.08 L 255.57,242.64 L 255.56,244.35 L 255.52,247.43 L 255.50,248.92 L 255.45,251.55 L 255.43,252.82 L 255.38,255.04 L 255.35,256.10 L 255.29,257.95 L 255.26,258.82 L 255.19,260.31 L 255.16,261.02 L 255.08,262.19 L 255.04,262.74 L 254.95,263.63 L 254.90,264.04 L 254.80,264.67 L 254.70,265.25 L 254.45,265.77 L 254.31,265.94 Z" fill="rgba(255,200,100,1)"/>
</g>
</svg>