<!-- <svg xmlns="http://www.w3.org/2000/svg" xmlns:xlink="http://www.w3.org/1999/xlink" version="1.1" id="Layer_1" x="0px" y="0px" viewBox="0 0 18.6 26" style="enable-background:new 0 0 18.6 26;" xml:space="preserve">
<style type="text/css">
	.st0{fill:#00A3FF;}
	.st1{opacity:0.6;fill:#00A3FF;enable-background:new    ;}
	.st2{opacity:0.2;fill:#00A3FF;enable-background:new    ;}
</style>
<path class="st0" d="M1.7,11.7L1.5,12c-2.3,3.6-1.8,8.3,1.3,11.3C4.5,25.1,6.9,26,9.3,26C9.3,26,9.3,26,1.7,11.7z"/>
<path class="st1" d="M9.3,16l-7.6-4.4C9.3,26,9.3,26,9.3,26C9.3,22.9,9.3,19.3,9.3,16z"/>
<path class="st1" d="M16.9,11.7l0.2,0.3c2.3,3.6,1.8,8.3-1.3,11.3C14,25.1,11.7,26,9.3,26C9.3,26,9.3,26,16.9,11.7z"/>
<path class="st2" d="M9.3,16l7.6-4.4C9.3,26,9.3,26,9.3,26C9.3,22.9,9.3,19.3,9.3,16z"/>
<path class="st2" d="M9.3,6.3v7.5l6.6-3.7L9.3,6.3z"/>
<path class="st1" d="M9.3,6.3l-6.6,3.8l6.6,3.7V6.3z"/>
<path class="st0" d="M9.3,0L2.7,10.1l6.6-3.8V0z"/>
<path class="st1" d="M9.3,6.3l6.6,3.8L9.3,0V6.3z"/>
</svg> -->
<svg width="512" height="512" viewBox="0 0 512 512" fill="none" xmlns="http://www.w3.org/2000/svg">
<path d="M256 512C397.385 512 512 397.385 512 256C512 114.615 397.385 0 256 0C114.615 0 0 114.615 0 256C0 397.385 114.615 512 256 512Z" fill="white"/>
<path d="M150.988 237.812L148.122 242.209C115.796 291.798 123.016 356.742 165.48 398.348C190.461 422.826 223.202 435.066 255.944 435.069C255.944 435.069 255.944 435.069 150.988 237.812Z" fill="#00A3FF"/>
<path opacity="0.6" d="M255.914 297.764L150.958 237.812C255.914 435.069 255.914 435.069 255.914 435.069C255.914 392.108 255.914 342.88 255.914 297.764Z" fill="#00A3FF"/>
<path opacity="0.6" d="M361.012 237.812L363.878 242.209C396.204 291.798 388.984 356.742 346.52 398.348C321.539 422.826 288.798 435.066 256.056 435.069C256.056 435.069 256.056 435.069 361.012 237.812Z" fill="#00A3FF"/>
<path opacity="0.2" d="M256.044 297.764L361 237.812C256.045 435.069 256.044 435.069 256.044 435.069C256.044 392.108 256.044 342.88 256.044 297.764Z" fill="#00A3FF"/>
<path opacity="0.2" d="M256.083 163.833V267.233L346.491 215.567L256.083 163.833Z" fill="#00A3FF"/>
<path opacity="0.6" d="M256.056 163.833L165.583 215.565L256.056 267.233V163.833Z" fill="#00A3FF"/>
<path d="M256.056 76.875L165.583 215.599L256.056 163.722V76.875Z" fill="#00A3FF"/>
<path opacity="0.6" d="M256.083 163.706L346.56 215.585L256.083 76.7917V163.706Z" fill="#00A3FF"/>
</svg>
