<svg width="16" height="16" viewBox="0 0 157 157" fill="#0E121B" xmlns="http://www.w3.org/2000/svg" color="#0E121B"><path d="M78.5443 1.51676H78.5473C121.09 1.51676 155.578 36.0046 155.578 78.5475V78.5504C155.578 121.093 121.09 155.581 78.5473 155.581H78.5443C36.0014 155.581 1.51359 121.093 1.51359 78.5504V78.5475C1.51359 36.0046 36.0014 1.51676 78.5443 1.51676Z" fill="white" stroke="#18E3C2" stroke-width="2.83772"></path><path fill-rule="evenodd" clip-rule="evenodd" d="M65.961 13.9946C35.679 19.8276 12.8047 46.4696 12.8047 78.4541C12.8047 110.439 35.679 137.081 65.961 142.914V136.761C39.0314 131.021 18.8334 107.096 18.8334 78.4541C18.8334 49.8121 39.0314 25.8877 65.961 20.1471V13.9946ZM91.0531 20.1711V14.0164C121.279 19.8935 144.097 46.5091 144.097 78.4541C144.097 110.399 121.279 137.015 91.0531 142.892V136.737C117.927 130.954 138.068 107.056 138.068 78.4541C138.068 49.852 117.927 25.9542 91.0531 20.1711Z" fill="black"></path><path d="M87.8033 76.2601C92.8121 77.2147 96.6971 79.0557 99.4584 81.7831C102.22 84.4423 103.6 87.8516 103.6 92.0109V98.5567C103.6 103.534 101.802 107.557 98.2062 110.625C94.6101 113.626 89.8903 115.126 84.0467 115.126H82.0239V125.558H75.0887V115.126H72.9696C69.1166 115.126 65.7132 114.273 62.7593 112.569C59.8054 110.796 57.4937 108.341 55.8241 105.205C54.2187 102 53.416 98.318 53.416 94.1587H60.3513C60.3513 98.3862 61.5071 101.83 63.8189 104.489C66.1949 107.08 69.3093 108.375 73.1622 108.375H83.854C87.6427 108.375 90.693 107.489 93.0047 105.716C95.3165 103.875 96.4723 101.489 96.4723 98.5567V92.0109C96.4723 89.6926 95.6054 87.7152 93.8716 86.0788C92.202 84.4423 89.8903 83.3855 86.9364 82.9082L69.5983 79.8398C64.7179 78.9534 60.9292 77.1124 58.2322 74.3169C55.5351 71.5213 54.1866 68.0097 54.1866 63.7823V58.2593C54.1866 53.2818 55.9204 49.327 59.388 46.3951C62.9199 43.3949 67.5755 41.8948 73.3549 41.8948H75.0887V31.4625H82.0239V41.8948H84.2393C89.6976 41.8948 94.0964 43.6677 97.4356 47.2133C100.775 50.6907 102.444 55.2932 102.444 61.0208H95.5091C95.5091 57.2706 94.4817 54.2704 92.4268 52.0203C90.3719 49.7702 87.6427 48.6452 84.2393 48.6452H73.3549C69.6946 48.6452 66.7728 49.5316 64.5895 51.3044C62.4062 53.009 61.3145 55.3273 61.3145 58.2593V63.7823C61.3145 66.1687 62.1172 68.1802 63.7226 69.8166C65.3922 71.4531 67.6718 72.544 70.5615 73.0895L87.8033 76.2601Z" fill="black"></path></svg>