<svg width="1080" height="1080" viewBox="0 0 1080 1080" fill="none" xmlns="http://www.w3.org/2000/svg">
<g clip-path="url(#clip0_56_5)">
<path d="M540 1080C838.234 1080 1080 838.234 1080 540C1080 241.766 838.234 0 540 0C241.766 0 0 241.766 0 540C0 838.234 241.766 1080 540 1080Z" fill="#00C260"/>
<path d="M524.092 164.455V428.187C524.092 439.056 510.982 444.573 503.225 436.94L379.594 315.467L431.411 180.178C435.02 170.719 444.106 164.455 454.27 164.455H524.05H524.092Z" fill="black"/>
<path d="M524.091 523.563V671.713C524.091 681.503 512.35 686.565 505.256 679.844L313.669 498.422L369.884 351.725L509.653 489.046C518.905 498.132 524.132 510.579 524.132 523.521L524.091 523.563Z" fill="black"/>
<path d="M524.09 762.463V828.884H227.003C209.827 828.884 198.003 811.667 204.143 795.653L303.919 535.405L510.482 730.975C519.152 739.189 524.048 750.556 524.048 762.504L524.09 762.463Z" fill="black"/>
<path d="M555.79 164.455V428.187C555.79 439.056 568.901 444.573 576.659 436.94L700.289 315.467L648.472 180.178C644.863 170.719 635.777 164.455 625.613 164.455H555.832H555.79Z" fill="black"/>
<path d="M555.793 523.563V671.713C555.793 681.505 567.534 686.566 574.628 679.844L766.215 498.422L710 351.725L570.23 489.046C560.979 498.132 555.751 510.579 555.751 523.523L555.793 523.563Z" fill="black"/>
<path d="M555.794 762.463V828.884H852.881C870.057 828.884 881.88 811.667 875.74 795.653L775.964 535.406L569.401 730.975C560.73 739.189 555.836 750.557 555.836 762.504L555.794 762.463Z" fill="black"/>
</g>
<defs>
<clipPath id="clip0_56_5">
<rect width="1080" height="1080" fill="white"/>
</clipPath>
</defs>
</svg>
