<svg width="800" height="800" viewBox="0 0 800 800" fill="none" xmlns="http://www.w3.org/2000/svg">
<g clip-path="url(#clip0_8_6)">
<path d="M788.031 496.762C734.602 711.05 517.539 841.461 303.202 788.025C88.9543 734.602 -41.4717 517.549 11.9806 303.279C65.3861 88.9677 282.449 -41.4534 496.72 11.9695C711.042 65.3924 841.46 282.468 788.025 496.766L788.029 496.762H788.031Z" fill="#00FF96"/>
<path d="M576.402 343.01C584.364 289.779 543.833 261.165 488.41 242.077L506.389 169.97L462.491 159.033L444.988 229.241C433.448 226.363 421.596 223.651 409.817 220.963L427.447 150.291L383.576 139.354L365.586 211.437C356.036 209.263 346.656 207.114 337.556 204.85L337.607 204.623L277.07 189.508L265.392 236.389C265.392 236.389 297.961 243.854 297.275 244.313C315.051 248.75 318.266 260.516 317.732 269.842L297.251 351.988C298.475 352.299 300.063 352.749 301.815 353.452C300.351 353.089 298.792 352.692 297.175 352.305L268.468 467.38C266.296 472.78 260.782 480.884 248.353 477.807C248.793 478.444 216.447 469.845 216.447 469.845L194.652 520.089L251.779 534.329C262.406 536.993 272.821 539.781 283.077 542.403L264.911 615.337L308.759 626.274L326.748 554.115C338.727 557.366 350.352 560.365 361.732 563.193L343.803 635.012L387.704 645.949L405.867 573.152C480.723 587.317 537.009 581.606 560.7 513.907C579.791 459.401 559.75 427.962 520.368 407.46C549.052 400.846 570.657 381.982 576.418 343.016L576.404 343.006L576.402 343.01ZM476.104 483.637C462.538 538.143 370.756 508.679 340.999 501.29L365.105 404.666C394.86 412.094 490.283 426.793 476.106 483.637H476.104ZM489.681 342.22C477.305 391.799 400.914 366.611 376.134 360.434L397.989 272.802C422.769 278.978 502.573 290.506 489.685 342.22H489.681Z" fill="black"/>
</g>
<defs>
<clipPath id="clip0_8_6">
<rect width="800" height="800" fill="white"/>
</clipPath>
</defs>
</svg>
