<svg width="1080" height="1080" viewBox="0 0 1080 1080" fill="none" xmlns="http://www.w3.org/2000/svg">
<g clip-path="url(#clip0_8_6)">
<path d="M1063.84 670.629C991.713 959.917 698.678 1135.97 409.322 1063.83C120.088 991.712 -55.9869 698.692 16.1738 409.427C88.2711 120.106 381.306 -55.9621 670.572 16.1588C959.906 88.2797 1135.97 381.332 1063.83 670.634L1063.84 670.629H1063.84Z" fill="#00C260"/>
<path d="M778.142 463.063C788.892 391.201 734.175 352.573 659.353 326.803L683.626 229.46L624.363 214.695L600.734 309.475C585.154 305.59 569.155 301.929 553.253 298.3L577.053 202.893L517.827 188.128L493.541 285.44C480.649 282.505 467.986 279.604 455.7 276.548L455.769 276.242L374.044 255.836L358.28 319.125C358.28 319.125 402.248 329.203 401.321 329.823C425.319 335.812 429.659 351.696 428.938 364.286L401.289 475.184C402.942 475.604 405.085 476.211 407.451 477.161C405.473 476.67 403.369 476.134 401.186 475.611L362.432 630.963C359.499 638.253 352.055 649.194 335.277 645.039C335.871 645.9 292.204 634.291 292.204 634.291L262.781 702.12L339.902 721.343C354.249 724.941 368.308 728.705 382.154 732.244L357.63 830.705L416.824 845.47L441.11 748.055C457.281 752.444 472.975 756.493 488.338 760.31L464.134 857.266L523.4 872.031L547.92 773.755C648.976 792.878 724.962 785.169 756.945 693.774C782.717 620.191 755.662 577.748 702.497 550.071C741.22 541.142 770.387 515.676 778.164 463.071L778.145 463.058L778.142 463.063ZM642.741 652.91C624.426 726.493 500.521 686.716 460.349 676.742L492.892 546.299C533.061 556.326 661.882 576.17 642.744 652.91H642.741ZM661.069 461.997C644.362 528.929 541.234 494.924 507.78 486.586L537.285 368.283C570.739 376.621 678.473 392.183 661.074 461.997H661.069Z" fill="black"/>
</g>
<defs>
<clipPath id="clip0_8_6">
<rect width="1080" height="1080" fill="white"/>
</clipPath>
</defs>
</svg>
