<svg width="800" height="800" viewBox="0 0 800 800" fill="none" xmlns="http://www.w3.org/2000/svg">
<g clip-path="url(#clip0_8_2)">
<path d="M400 800C621.668 800 800 621.668 800 400C800 178.332 621.668 0 400 0C178.332 0 0 178.332 0 400C0 621.668 178.332 800 400 800Z" fill="#00FF96"/>
<path d="M510 463.332C510 405 475 385 405 376.668C355 370 345 356.668 345 333.332C345 309.996 361.668 295 395 295C425 295 441.668 305 450 330C451.668 335 456.668 338.332 461.668 338.332H488.332C495 338.332 500 333.332 500 326.668V325C493.332 288.332 463.332 260 425 256.668V216.668C425 210 420 205 411.668 203.332H386.668C380 203.332 375 208.332 373.332 216.668V255C323.332 261.668 291.668 295 291.668 336.668C291.668 391.668 325 413.332 395 421.668C441.668 430 456.668 440 456.668 466.668C456.668 493.336 433.332 511.668 401.668 511.668C358.332 511.668 343.332 493.332 338.332 468.332C336.668 461.668 331.668 458.332 326.668 458.332H298.332C291.668 458.332 286.668 463.332 286.668 470V471.668C293.332 513.332 320 543.332 375 551.668V591.668C375 598.332 380 603.332 388.332 605H413.332C420 605 425 600 426.668 591.668V551.668C476.668 543.332 510 508.332 510 463.332Z" fill="black"/>
<path d="M315 638.332C185 591.668 118.332 446.668 166.668 318.332C191.668 248.332 246.668 195 315 170C321.668 166.668 325 161.668 325 153.332V130C325 123.332 321.668 118.332 315 116.668C313.332 116.668 310 116.668 308.332 118.332C150 168.332 63.332 336.668 113.332 495C143.332 588.332 215 660 308.332 690C315 693.332 321.668 690 323.332 683.332C325 681.668 325 680 325 676.668V653.332C325 648.332 320 641.668 315 638.332ZM491.668 118.332C485 115 478.332 118.332 476.668 125C475 126.668 475 128.332 475 131.668V155C475 161.668 480 168.332 485 171.668C615 218.332 681.668 363.332 633.332 491.668C608.332 561.668 553.332 615 485 640C478.332 643.332 475 648.332 475 656.668V680C475 686.668 478.332 691.668 485 693.332C486.668 693.332 490 693.332 491.668 691.668C650 641.668 736.668 473.332 686.668 315C656.668 220 583.332 148.332 491.668 118.332Z" fill="black"/>
</g>
<defs>
<clipPath id="clip0_8_2">
<rect width="800" height="800" fill="white"/>
</clipPath>
</defs>
</svg>
