<svg width="1080" height="1080" viewBox="0 0 1080 1080" fill="none" xmlns="http://www.w3.org/2000/svg">
<g clip-path="url(#clip0_9_11)">
<path d="M540 1080C839.252 1080 1080 839.252 1080 540C1080 240.748 839.252 0 540 0C240.748 0 0 240.748 0 540C0 839.252 240.748 1080 540 1080Z" fill="#00C260"/>
<path d="M688.5 625.498C688.5 546.75 641.25 519.75 546.75 508.502C479.25 499.5 465.75 481.502 465.75 449.998C465.75 418.495 488.252 398.25 533.25 398.25C573.75 398.25 596.252 411.75 607.5 445.5C609.752 452.25 616.502 456.748 623.252 456.748H659.248C668.25 456.748 675 449.998 675 441.002V438.75C665.998 389.248 625.498 351 573.75 346.502V292.502C573.75 283.5 567 276.75 555.752 274.498H522.002C513 274.498 506.25 281.248 503.998 292.502V344.25C436.498 353.252 393.752 398.25 393.752 454.502C393.752 528.752 438.75 557.998 533.25 569.252C596.252 580.5 616.502 594 616.502 630.002C616.502 666.004 584.998 690.752 542.252 690.752C483.748 690.752 463.498 665.998 456.748 632.248C454.502 623.252 447.752 618.748 441.002 618.748H402.748C393.752 618.748 387.002 625.498 387.002 634.5V636.752C395.998 692.998 432 733.498 506.25 744.752V798.752C506.25 807.748 513 814.498 524.248 816.75H557.998C567 816.75 573.75 810 576.002 798.752V744.752C643.502 733.498 688.5 686.248 688.5 625.498Z" fill="black"/>
<path d="M425.25 861.748C249.75 798.752 159.748 603.002 225.002 429.748C258.752 335.248 333.002 263.25 425.25 229.5C434.252 225.002 438.75 218.252 438.75 206.998V175.5C438.75 166.498 434.252 159.748 425.25 157.502C422.998 157.502 418.5 157.502 416.248 159.748C202.5 227.248 85.4982 454.502 152.998 668.25C193.498 794.248 290.25 891 416.248 931.5C425.25 935.998 434.252 931.5 436.498 922.498C438.75 920.252 438.75 918 438.75 913.502V881.998C438.75 875.248 432 866.252 425.25 861.748ZM663.752 159.748C654.75 155.25 645.748 159.748 643.502 168.75C641.25 171.002 641.25 173.248 641.25 177.752V209.25C641.25 218.252 648 227.248 654.75 231.752C830.25 294.748 920.252 490.498 854.998 663.752C821.248 758.252 746.998 830.25 654.75 864C645.748 868.498 641.25 875.248 641.25 886.502V918C641.25 927.002 645.748 933.752 654.75 935.998C657.002 935.998 661.5 935.998 663.752 933.752C877.5 866.252 994.502 638.998 927.002 425.25C886.502 297 787.498 200.248 663.752 159.748Z" fill="black"/>
</g>
<defs>
<clipPath id="clip0_9_11">
<rect width="1080" height="1080" fill="white"/>
</clipPath>
</defs>
</svg>
